<svg xmlns="http://www.w3.org/2000/svg" width="399.642" height="266.539" viewBox="0 0 399.642 266.539">
  <path id="Icon_ionic-ios-arrow-round-back" data-name="Icon ionic-ios-arrow-round-back" d="M152.664,16.355A18.139,18.139,0,0,1,152.8,41.9L68.543,126.433H389.617a18.046,18.046,0,0,1,0,36.091H68.543l84.4,84.537A18.269,18.269,0,0,1,152.8,272.6a17.972,17.972,0,0,1-25.4-.139L13.018,157.25h0a20.264,20.264,0,0,1-3.748-5.691,17.223,17.223,0,0,1-1.388-6.941,18.093,18.093,0,0,1,5.136-12.632L127.4,16.772A17.683,17.683,0,0,1,152.664,16.355Z" transform="translate(-7.882 -11.252)" fill="#111112"/>
</svg>
