<svg id="Layer_1" data-name="Layer 1" xmlns="http://www.w3.org/2000/svg" viewBox="0 0 394.77 405.29">
  <g>
    <path d="M247,11.7c5.22,2.44,10.95,4.18,15.55,7.49,8.69,6.25,12.63,15.4,12.83,26.1.06,3.59,0,7.18,0,11.23h4.22c17.06,0,34.11-.06,51.17,0,20,.08,35.06,15.42,34.13,35.33-.63,13.43-7.56,23.15-19.78,28.82-2.33,1.09-3.23,2.22-3.44,4.86-2,25.53-4.31,51-6.42,76.57-1.88,22.55-3.59,45.11-5.46,67.66S326,314.87,324,337.41c-.89,10.15-1.34,20.39-3.08,30.39-2.55,14.71-16.28,25.78-31.19,26.28-1.24,0-2.49,0-3.73,0H107.88c-21,0-34.85-13.35-36.38-34.38-1.72-23.56-3.88-47.08-5.81-70.63-1.6-19.58-3.09-39.17-4.71-58.74s-3.34-38.9-5-58.35c-1.32-15.61-2.63-31.22-3.83-46.85-.15-2.08-.63-3.26-2.72-4.16-15.23-6.6-23.24-22.11-19.82-38,3.3-15.4,16.92-26.33,33.14-26.41,17-.09,34.11,0,51.16,0h4.59c0-3.13.13-6.07,0-9A33.89,33.89,0,0,1,146,12.26c.33-.06.61-.37.92-.56ZM319.11,124H74.82c1,12.05,1.89,23.82,2.86,35.59q2.08,25.1,4.2,50.18c1.34,16.23,2.64,32.46,4,48.69q2.07,24.92,4.21,49.81c1.42,17,2.7,34,4.3,50.91.89,9.43,4.64,12.54,14.05,12.54h177a31.16,31.16,0,0,0,3.35-.07c5.76-.57,10.05-4.44,10.52-9.83,1.57-18,3-35.93,4.52-53.89q2-24,4-48,2.1-25.28,4.22-50.54,1.72-20.44,3.45-40.89C316.71,153.8,317.89,139.05,319.11,124ZM196.77,101.33q65.73,0,131.46,0a23.25,23.25,0,0,0,6.62-.74,10.94,10.94,0,0,0,4.8-17.81c-2.93-3.25-6.73-3.86-10.85-3.86q-131.84,0-263.66,0a21.5,21.5,0,0,0-5.89.7,10.93,10.93,0,0,0-4.85,18c2.87,3.08,6.54,3.72,10.54,3.72Q130.85,101.31,196.77,101.33ZM141,56.25H253c0-3.11,0-6,0-8.81,0-8.9-4.42-13.31-13.29-13.33-10.7,0-21.4,0-32.1,0-18,0-36.09,0-54.14,0-7.3,0-12,4.24-12.46,11.1C140.78,48.8,141,52.4,141,56.25Z"/>
    <path d="M152,335.39c.26,8.81-3.91,13.95-11.22,13.91a10.94,10.94,0,0,1-11-10.05c-1.08-15.62-2-31.25-3-46.88q-1.74-27.54-3.46-55.08-1.66-26.81-3.27-53.6c-.5-8.31-1.15-16.62-1.46-24.94-.28-7.43,4.14-12.42,10.7-12.6,6.72-.18,11.23,4.3,11.69,11.72q2.67,42.6,5.31,85.22,2.83,45,5.75,90.06C152.07,333.89,152,334.64,152,335.39Z"/>
    <path d="M241.8,335.27c1.18-18.51,2.37-36.74,3.51-55,1.1-17.61,2.14-35.23,3.23-52.85Q250.27,199.71,252,172c.32-5.09.62-10.18,1-15.26a11.05,11.05,0,0,1,11.65-10.58,10.73,10.73,0,0,1,10.66,11.12c-.63,14.66-1.59,29.3-2.48,43.94-.85,14.14-1.8,28.28-2.69,42.42q-1.75,27.92-3.5,55.82-1.18,19-2.4,38c-.5,7.69-5,12.15-11.91,11.87-6.5-.27-10.62-5.28-10.54-12.8C241.81,336,241.8,335.5,241.8,335.27Z"/>
    <path d="M185.76,247.75q0-45,0-90c0-6.1,3.95-10.82,9.49-11.57a11.1,11.1,0,0,1,12.39,7.87,14,14,0,0,1,.49,4q0,89.59,0,179.18c0,7.19-4.67,12.07-11.36,12-6.48-.07-11-4.94-11-12Q185.74,292.54,185.76,247.75Z"/>
  </g>
</svg>
