<svg xmlns="http://www.w3.org/2000/svg" width="416.501" height="124" viewBox="0 0 416.501 124">
  <g id="Group_53" data-name="Group 53" transform="translate(-864.25 -277)">
    <text id="Jan_" data-name="Jan " transform="translate(868.75 396)" fill="#111112" font-size="14" font-family="SourceSansPro-Regular, Source Sans Pro"><tspan x="0" y="0">Jan </tspan></text>
    <text id="Feb" transform="translate(906.75 396)" fill="#111112" font-size="14" font-family="SourceSansPro-Regular, Source Sans Pro"><tspan x="0" y="0">Feb</tspan></text>
    <text id="Mar" transform="translate(941.75 396)" fill="#111112" font-size="14" font-family="SourceSansPro-Regular, Source Sans Pro"><tspan x="0" y="0">Mar</tspan></text>
    <text id="Apr" transform="translate(977.75 396)" fill="#111112" font-size="14" font-family="SourceSansPro-Regular, Source Sans Pro"><tspan x="0" y="0">Apr</tspan></text>
    <text id="May" transform="translate(1010.75 396)" fill="#111112" font-size="14" font-family="SourceSansPro-Regular, Source Sans Pro"><tspan x="0" y="0">May</tspan></text>
    <text id="Jun" transform="translate(1048.75 396)" fill="#111112" font-size="14" font-family="SourceSansPro-Regular, Source Sans Pro"><tspan x="0" y="0">Jun</tspan></text>
    <text id="Jul" transform="translate(1083.75 397)" fill="#111112" font-size="14" font-family="SourceSansPro-Regular, Source Sans Pro"><tspan x="0" y="0">Jul</tspan></text>
    <text id="Aug" transform="translate(1116.75 396)" fill="#111112" font-size="14" font-family="SourceSansPro-Regular, Source Sans Pro"><tspan x="0" y="0">Aug</tspan></text>
    <text id="Sep" transform="translate(1152.75 397)" fill="#111112" font-size="14" font-family="SourceSansPro-Regular, Source Sans Pro"><tspan x="0" y="0">Sep</tspan></text>
    <text id="Oct" transform="translate(1187.75 397)" fill="#111112" font-size="14" font-family="SourceSansPro-Regular, Source Sans Pro"><tspan x="0" y="0">Oct</tspan></text>
    <text id="Nov" transform="translate(1222.75 397)" fill="#111112" font-size="14" font-family="SourceSansPro-Regular, Source Sans Pro"><tspan x="0" y="0">Nov</tspan></text>
    <text id="Dec" transform="translate(1258.75 397)" fill="#111112" font-size="14" font-family="SourceSansPro-Regular, Source Sans Pro"><tspan x="0" y="0">Dec</tspan></text>
    <path id="Rectangle_91" data-name="Rectangle 91" d="M4,0H8a4,4,0,0,1,4,4V68a0,0,0,0,1,0,0H0a0,0,0,0,1,0,0V4A4,4,0,0,1,4,0Z" transform="translate(918.75 312)" fill="#bebebe"/>
    <path id="Rectangle_95" data-name="Rectangle 95" d="M4,0H8a4,4,0,0,1,4,4v99a0,0,0,0,1,0,0H0a0,0,0,0,1,0,0V4A4,4,0,0,1,4,0Z" transform="translate(1058.75 277)" fill="#e5e5e5"/>
    <path id="Rectangle_103" data-name="Rectangle 103" d="M4,0H8a4,4,0,0,1,4,4V67a0,0,0,0,1,0,0H0a0,0,0,0,1,0,0V4A4,4,0,0,1,4,0Z" transform="translate(1128.75 313)" fill="#bebebe"/>
    <path id="Rectangle_112" data-name="Rectangle 112" d="M4,0H8a4,4,0,0,1,4,4V68a0,0,0,0,1,0,0H0a0,0,0,0,1,0,0V4A4,4,0,0,1,4,0Z" transform="translate(905.75 312)" fill="#bebebe"/>
    <path id="Rectangle_113" data-name="Rectangle 113" d="M4,0H8a4,4,0,0,1,4,4V68a0,0,0,0,1,0,0H0a0,0,0,0,1,0,0V4A4,4,0,0,1,4,0Z" transform="translate(953.75 312)" fill="#bebebe"/>
    <path id="Rectangle_114" data-name="Rectangle 114" d="M4,0H8a4,4,0,0,1,4,4V68a0,0,0,0,1,0,0H0a0,0,0,0,1,0,0V4A4,4,0,0,1,4,0Z" transform="translate(940.75 312)" fill="#bebebe"/>
    <path id="Rectangle_115" data-name="Rectangle 115" d="M4,0H8a4,4,0,0,1,4,4V37.748a0,0,0,0,1,0,0H0a0,0,0,0,1,0,0V4A4,4,0,0,1,4,0Z" transform="translate(883.75 342.252)" fill="#676767"/>
    <path id="Rectangle_116" data-name="Rectangle 116" d="M4,0H8a4,4,0,0,1,4,4V37.748a0,0,0,0,1,0,0H0a0,0,0,0,1,0,0V4A4,4,0,0,1,4,0Z" transform="translate(870.75 342.252)" fill="#676767"/>
    <path id="Rectangle_117" data-name="Rectangle 117" d="M4,0H8a4,4,0,0,1,4,4V68a0,0,0,0,1,0,0H0a0,0,0,0,1,0,0V4A4,4,0,0,1,4,0Z" transform="translate(988.75 312)" fill="#bebebe"/>
    <path id="Rectangle_118" data-name="Rectangle 118" d="M4,0H8a4,4,0,0,1,4,4V68a0,0,0,0,1,0,0H0a0,0,0,0,1,0,0V4A4,4,0,0,1,4,0Z" transform="translate(975.75 312)" fill="#bebebe"/>
    <path id="Rectangle_119" data-name="Rectangle 119" d="M4,0H8a4,4,0,0,1,4,4V68a0,0,0,0,1,0,0H0a0,0,0,0,1,0,0V4A4,4,0,0,1,4,0Z" transform="translate(1023.75 312)" fill="#bebebe"/>
    <path id="Rectangle_120" data-name="Rectangle 120" d="M4,0H8a4,4,0,0,1,4,4V68a0,0,0,0,1,0,0H0a0,0,0,0,1,0,0V4A4,4,0,0,1,4,0Z" transform="translate(1010.75 312)" fill="#bebebe"/>
    <path id="Rectangle_121" data-name="Rectangle 121" d="M4,0H8a4,4,0,0,1,4,4V68a0,0,0,0,1,0,0H0a0,0,0,0,1,0,0V4A4,4,0,0,1,4,0Z" transform="translate(1045.75 312)" fill="#e5e5e5"/>
    <path id="Rectangle_122" data-name="Rectangle 122" d="M4,0H8a4,4,0,0,1,4,4v99a0,0,0,0,1,0,0H0a0,0,0,0,1,0,0V4A4,4,0,0,1,4,0Z" transform="translate(1080.75 277)" fill="#e5e5e5"/>
    <path id="Rectangle_123" data-name="Rectangle 123" d="M4,0H8a4,4,0,0,1,4,4v99a0,0,0,0,1,0,0H0a0,0,0,0,1,0,0V4A4,4,0,0,1,4,0Z" transform="translate(1093.75 277)" fill="#e5e5e5"/>
    <path id="Rectangle_124" data-name="Rectangle 124" d="M4,0H8a4,4,0,0,1,4,4v99a0,0,0,0,1,0,0H0a0,0,0,0,1,0,0V4A4,4,0,0,1,4,0Z" transform="translate(1115.75 277)" fill="#e5e5e5"/>
    <path id="Rectangle_125" data-name="Rectangle 125" d="M4,0H8a4,4,0,0,1,4,4V68a0,0,0,0,1,0,0H0a0,0,0,0,1,0,0V4A4,4,0,0,1,4,0Z" transform="translate(1163.75 312)" fill="#bebebe"/>
    <path id="Rectangle_126" data-name="Rectangle 126" d="M4,0H8a4,4,0,0,1,4,4V68a0,0,0,0,1,0,0H0a0,0,0,0,1,0,0V4A4,4,0,0,1,4,0Z" transform="translate(1150.75 312)" fill="#bebebe"/>
    <path id="Rectangle_127" data-name="Rectangle 127" d="M4,0H8a4,4,0,0,1,4,4V68a0,0,0,0,1,0,0H0a0,0,0,0,1,0,0V4A4,4,0,0,1,4,0Z" transform="translate(1198.75 312)" fill="#bebebe"/>
    <path id="Rectangle_128" data-name="Rectangle 128" d="M4,0H8a4,4,0,0,1,4,4V68a0,0,0,0,1,0,0H0a0,0,0,0,1,0,0V4A4,4,0,0,1,4,0Z" transform="translate(1185.75 312)" fill="#bebebe"/>
    <path id="Rectangle_129" data-name="Rectangle 129" d="M4,0H8a4,4,0,0,1,4,4V37.748a0,0,0,0,1,0,0H0a0,0,0,0,1,0,0V4A4,4,0,0,1,4,0Z" transform="translate(1233.75 342.252)" fill="#676767"/>
    <path id="Rectangle_130" data-name="Rectangle 130" d="M4,0H8a4,4,0,0,1,4,4V37.748a0,0,0,0,1,0,0H0a0,0,0,0,1,0,0V4A4,4,0,0,1,4,0Z" transform="translate(1220.75 342.252)" fill="#676767"/>
    <path id="Rectangle_131" data-name="Rectangle 131" d="M4,0H8a4,4,0,0,1,4,4V68a0,0,0,0,1,0,0H0a0,0,0,0,1,0,0V4A4,4,0,0,1,4,0Z" transform="translate(1255.75 312)" fill="#bebebe"/>
    <path id="Rectangle_132" data-name="Rectangle 132" d="M4,0H8a4,4,0,0,1,4,4v99a0,0,0,0,1,0,0H0a0,0,0,0,1,0,0V4A4,4,0,0,1,4,0Z" transform="translate(1268.75 277)" fill="#e5e5e5"/>
    <path id="Path_19" data-name="Path 19" d="M0,.359,416.5,0" transform="translate(864.25 380)" fill="none" stroke="#707070" stroke-width="1"/>
  </g>
</svg>
