<svg id="Layer_1" data-name="Layer 1" xmlns="http://www.w3.org/2000/svg" viewBox="0 0 3300 2200">
  <g id="routes">
    <path class="route" id="narsarsuaq-copenhagen" d="M923.2,2014.67s491.22-272.8,1330.5-97.87" fill="none" stroke="#bc252b" stroke-miterlimit="10" stroke-width="4"/>
    <path class="route" id="kangerlussuaq-copenhagen" d="M722.17,1465.49s866.28-197.16,1536,451.31" fill="none" stroke="#bc252b" stroke-miterlimit="10" stroke-width="4"/>
    <path class="route" id="aasiaat-ilulissat" d="M715,1275.27s-42,4.39-57,35" fill="none" stroke="#bc252b" stroke-miterlimit="10" stroke-width="4"/>
    <path class="route" id="ilulissat-kangerlussuaq" d="M726.13,1288s33.24,140.27-4,177.54" fill="none" stroke="#bc252b" stroke-miterlimit="10" stroke-width="4"/>
    <path class="route" id="aasiaat-kangerlussuaq" d="M657.91,1327.41s35.08,93.19,56.36,128.74" fill="none" stroke="#bc252b" stroke-miterlimit="10" stroke-width="4"/>
    <path class="route" id="sisimiut-kangerlussuaq" d="M622.26,1461s62.17-2.07,81.2,8" fill="none" stroke="#bc252b" stroke-miterlimit="10" stroke-width="4"/>
    <path class="route" id="maniitsoq-kangerlussuaq" d="M714.27,1478.76S645.93,1503.58,615,1581" fill="none" stroke="#bc252b" stroke-miterlimit="10" stroke-width="4"/>
    <path class="route" id="nuuk-kangerlussuaq" d="M714.27,1478.76S678,1583.28,653.21,1703.09" fill="none" stroke="#bc252b" stroke-miterlimit="10" stroke-width="4"/>
    <path class="route" id="narsarsuaq-kangerlussuaq" d="M714.27,1478.76s104,192.49,193.66,520.63" fill="none" stroke="#bc252b" stroke-miterlimit="10" stroke-width="4"/>
    <path class="route" id="nuuk-kulusuk" d="M663.16,1714s290-199.38,524.37-140" fill="none" stroke="#bc252b" stroke-miterlimit="10" stroke-width="4"/>
    <path class="route" id="tasiilaq-kulusuk" d="M1152.93,1597.78s17.44,23.55,38.46,0" fill="none" stroke="#bc252b" stroke-miterlimit="10" stroke-width="4"/>
    <path class="route" id="nuuk-maniitsoq" d="M615,1594.77s10.43,53.71,40,105.66" fill="none" stroke="#bc252b" stroke-miterlimit="10" stroke-width="4"/>
    <path class="route" id="nuuk-narsarsuaq" d="M653.21,1722.54s55.5,172.58,254.72,276.85" fill="none" stroke="#bc252b" stroke-miterlimit="10" stroke-width="4"/>
    <path class="route" id="qaqortoq-narsarsuaq" d="M899,2047s32.18,1.56,24.24-32.34" fill="none" stroke="#bc252b" stroke-miterlimit="10" stroke-width="4"/>
    <path class="route" id="keflavik-nuuk" d="M665.58,1712.16s357.66-342.21,990.11-81.43" fill="none" stroke="#bc252b" stroke-miterlimit="10" stroke-width="4"/>
    <path class="route" id="kulusuk-reykjavik" d="M1198.92,1586.52s202.48-91.27,483.32,15.28" fill="none" stroke="#272e64" stroke-miterlimit="10" stroke-width="4"/>
    <path class="route" id="sisimiut-nuuk" d="M607.63,1463.07S544.94,1605.89,642,1712.16" fill="none" stroke="#bc252b" stroke-miterlimit="10" stroke-width="4"/>
    <path class="route" id="ilulissat-qaarsut" d="M686.43,1156.92s8.38,65.91,40.17,107.85" fill="none" stroke="#bc252b" stroke-miterlimit="10" stroke-width="4"/>
    <path class="route" id="ilulissat-qeqertarsuaq" d="M655.14,1260.13s22.25,13.77,62.48,16.4" fill="none" stroke="#bc252b" stroke-miterlimit="10" stroke-width="4"/>
    <path class="route" id="siorapaluk-qaanaaq" d="M471.37,478.46a25.19,25.19,0,0,1-7.57-26.57" fill="none" stroke="#bc252b" stroke-miterlimit="10" stroke-width="4"/>
    <path class="route" id="nuuk-paamiut" d="M653.21,1722.54s-22.21,84.92,49,142.77" fill="none" stroke="#bc252b" stroke-miterlimit="10" stroke-width="4"/>
    <path class="route" id="narsarsuaq-paamiut" d="M702.79,1879S761,1990.82,892.65,2014.67" fill="none" stroke="#bc252b" stroke-miterlimit="10" stroke-width="4"/>
    <path class="route" id="keflavik-nuuk-2" data-name="keflavik-nuuk" d="M737.12,1276.53s461.8-8.2,918.57,354.2" fill="none" stroke="#272e64" stroke-miterlimit="10" stroke-width="4"/>
    <path class="route" id="narsarsuaq-reykjavik" d="M907.93,1999.39s180.67-378.22,774.31-397.59" fill="none" stroke="#272e64" stroke-miterlimit="10" stroke-width="4"/>
    <path class="route" id="nuuk-keflavik" d="M665.58,1712.16S1033.65,1818,1662.15,1624" fill="none" stroke="#272e64" stroke-miterlimit="10" stroke-width="4"/>
    <path class="route" id="qaanaaq-ilulissat" d="M480,475.83s11.31,518.7,246.62,788.94" fill="none" stroke="#bc252b" stroke-miterlimit="10" stroke-width="4"/>
  </g>
  <g id="pins">
    <rect class="pin" id="kulusukPin" x="1179.01" y="1570.41" width="24.75" height="24.75" transform="translate(-770.25 1306.02) rotate(-45)" fill="#101011"/>
    <rect class="pin" id="sisimiutPin" x="604.02" y="1445.78" width="30" height="30" rx="15" transform="translate(-851.62 865.57) rotate(-45)" fill="#101011"/>
    <rect class="pin" id="ilulissatPin" x="713.76" y="1264.15" width="24.75" height="24.75" transform="translate(-689.96 887.34) rotate(-45)" fill="#101011"/>
    <rect class="pin" id="keflavikPin" x="1654.59" y="1618.36" width="24.75" height="24.75" transform="translate(-664.86 1656.35) rotate(-45)" fill="#101011"/>
    <rect class="pin" id="copenhagenPin" x="2250.89" y="1904.62" width="24.75" height="24.75" transform="translate(-692.62 2161.85) rotate(-45)" fill="#101011"/>
    <rect class="pin" id="reykjavikPin" x="1679.75" y="1589.42" width="24.75" height="24.75" transform="translate(-637.03 1665.67) rotate(-45)" fill="#101011"/>
    <g class="pin" id="tasiilaqPin">
      <circle cx="1152.93" cy="1582.78" r="8.75" fill="#101011"/>
      <circle cx="1152.93" cy="1582.78" r="15" fill="none" stroke="#101011" stroke-miterlimit="10" stroke-width="2"/>
    </g>
    <rect class="pin" id="nuukPin" x="644.84" y="1699.78" width="24.75" height="24.75" transform="translate(-1018.18 966.2) rotate(-45)" fill="#101011"/>
    <rect class="pin" id="maniitsoqPin" x="603.02" y="1572.7" width="30" height="30" rx="15" transform="translate(-941.66 902.03) rotate(-45)" fill="#101011"/>
    <rect class="pin" id="paamiutPin" x="693.26" y="1855.82" width="30" height="30" rx="15" transform="translate(-1115.43 1048.77) rotate(-45)" fill="#101011"/>
    <g class="pin" id="siorapalukPin">
      <circle cx="463.8" cy="436.8" r="8.89" fill="#101011"/>
      <circle cx="463.8" cy="436.8" r="15.24" fill="none" stroke="#101011" stroke-miterlimit="10" stroke-width="2"/>
    </g>
    <rect class="pin" id="qaanaaqPin" x="465.43" y="457.57" width="29.1" height="29.1" rx="13.42" transform="translate(474.42 -201.12) rotate(45)" fill="#101011"/>
    <rect class="pin" id="kangerlussuaqPin" x="701.89" y="1454.59" width="24.75" height="24.75" transform="translate(-828.09 934.73) rotate(-45)" fill="#101011"/>
    <rect class="pin" id="narsarsuaqPin" x="895.55" y="2000.29" width="24.75" height="24.75" transform="translate(-1157.24 1231.5) rotate(-45)" fill="#101011"/>
    <rect class="pin" id="aasiaatPin" x="642.91" y="1304.46" width="30" height="30" rx="15" transform="translate(-740.3 851.67) rotate(-45)" fill="#101011"/>
    <rect class="pin" id="qaarsutPin" x="671.43" y="1131.12" width="30" height="30" rx="15" transform="translate(-609.38 821.07) rotate(-45)" fill="#101011"/>
    <g class="pin" id="qeqertarsuaqPin">
      <circle cx="644.95" cy="1260.13" r="8.75" fill="#101011"/>
      <circle cx="644.95" cy="1260.13" r="15" fill="none" stroke="#101011" stroke-miterlimit="10" stroke-width="2"/>
    </g>
    <g class="pin" id="qaqortoqPin">
      <circle cx="883.96" cy="2046.07" r="8.75" fill="#101011"/>
      <circle cx="883.96" cy="2046.07" r="15" fill="none" stroke="#101011" stroke-miterlimit="10" stroke-width="2"/>
    </g>
  </g>
  <g id="labels">
    <g class="label" id="qaarsutLabel">
      <polygon points="697.61 1112.55 686.38 1127.78 675.15 1112.55 686.38 1097.31 697.61 1112.55" fill="#111112"/>
      <rect x="570.89" y="1064.62" width="230.98" height="55" rx="11.01" fill="#111112"/>
      <text transform="translate(620.11 1102.84)" font-size="38" fill="#fff" font-family="SourceSansPro-Regular, Source Sans Pro">Qaa<tspan x="63.54" y="0" letter-spacing="0em">r</tspan><tspan x="76.57" y="0" letter-spacing="0em">sut</tspan></text>
      <path class="close" d="M793.36,1102l-9.87-9.89,9.87-9.88a3,3,0,0,0-4.23-4.24h0l-9.87,9.89-9.87-9.88a3,3,0,1,0-4.23,4.24l9.87,9.87-9.87,9.88a2.9,2.9,0,0,0-.14,4.1,1.85,1.85,0,0,0,.14.14,3,3,0,0,0,4.21,0l0,0,9.87-9.88,9.86,9.88a3,3,0,0,0,4.27-4.21Z" fill="#fff"/>
    </g>
    <g class="label" id="aasiaatLabel">
      <polygon points="623.3 1330.69 608.06 1319.46 623.3 1308.23 638.53 1319.46 623.3 1330.69" fill="#111112"/>
      <rect x="400.83" y="1291.96" width="222.74" height="55" rx="11.01" fill="#111112"/>
      <text transform="translate(449.58 1331.69)" font-size="38" fill="#fff" font-family="SourceSansPro-Regular, Source Sans Pro"><tspan letter-spacing="0.02em">A</tspan><tspan x="21.55" y="0">asia</tspan><tspan x="85.12" y="0" letter-spacing="-0.01em">a</tspan><tspan x="103.74" y="0">t</tspan></text>
      <path class="close" data-name="close" d="M613,1329.34l-9.87-9.88,9.87-9.88a3,3,0,0,0-4.24-4.24h0l-9.87,9.89-9.86-9.88a3,3,0,0,0-4.23,4.23l9.87,9.88-9.87,9.88a2.89,2.89,0,0,0-.14,4.09l.14.15a3,3,0,0,0,4.2,0l0,0,9.86-9.88,9.87,9.88a3,3,0,0,0,4.23,0,3,3,0,0,0,0-4.21Z" fill="#fff"/>
    </g>
    <g class="label" id="narsarsuaqLabel">
      <polygon points="919.58 1969.56 908.34 1984.8 897.11 1969.56 908.34 1954.32 919.58 1969.56" fill="#111112"/>
      <rect x="756.72" y="1914.85" width="302.42" height="55" rx="11.01" fill="#111112"/>
      <text transform="translate(817.07 1953.32)" font-size="38" fill="#fff" font-family="SourceSansPro-Regular, Source Sans Pro">Na<tspan x="43.74" y="0" letter-spacing="0em">r</tspan><tspan x="56.77" y="0" letter-spacing="0em">sa</tspan><tspan x="91.84" y="0" letter-spacing="0em">r</tspan><tspan x="104.88" y="0">suaq</tspan></text>
      <path class="close" data-name="close" d="M1044,1952.23l-9.87-9.89,9.87-9.88a3,3,0,0,0-4.23-4.24h0l-9.87,9.89-9.87-9.88a3,3,0,1,0-4.23,4.24l9.87,9.87-9.86,9.88a2.91,2.91,0,0,0-.15,4.1l.15.14a3,3,0,0,0,4.2,0l0,0,9.86-9.88,9.87,9.88a3,3,0,0,0,4.26-4.2Z" fill="#fff"/>
    </g>
    <g class="label" id="kangerlussuaqLabel">
      <polygon points="725.25 1431.26 714.02 1446.49 702.78 1431.26 714.02 1416.02 725.25 1431.26" fill="#111112"/>
      <rect x="546.97" y="1376.72" width="341.29" height="55" rx="11.01" fill="#111112"/>
      <text transform="translate(596.41 1414.02)" font-size="38" fill="#fff" font-family="SourceSansPro-Regular, Source Sans Pro">Kan<tspan x="61.94" y="0" letter-spacing="-0.01em">g</tspan><tspan x="80.56" y="0">erlussuaq</tspan></text>
      <path class="close" data-name="close" d="M875.14,1414.1l-9.86-9.88,9.86-9.88a3,3,0,1,0-4.23-4.24h0L861,1400l-9.87-9.89a3,3,0,1,0-4.23,4.24l9.87,9.88L847,1414.1a2.89,2.89,0,0,0-.15,4.09l.15.14a3,3,0,0,0,4.2,0l0,0,9.86-9.87,9.87,9.88a3,3,0,0,0,4.26-4.21Z" fill="#fff"/>
    </g>
    <g class="label" id="qaanaaqLabel">
      <polygon points="491.33 503.26 480.1 518.5 468.87 503.26 480.1 488.03 491.33 503.26" fill="#111112"/>
      <rect x="354.11" y="504.03" width="254.23" height="55" rx="11.01" fill="#111112"/>
      <text transform="translate(402.74 542.38)" font-size="38" fill="#fff" font-family="SourceSansPro-Regular, Source Sans Pro">Qaanaaq</text>
      <path class="close" d="M594,541.41l-9.87-9.88,9.87-9.88a3,3,0,1,0-4.23-4.24h0l-9.87,9.89-9.87-9.88a3,3,0,1,0-4.23,4.24l9.87,9.87-9.86,9.88a2.89,2.89,0,0,0-.15,4.09l.15.15a3,3,0,0,0,4.2,0l0,0,9.86-9.88,9.87,9.88a3,3,0,0,0,4.26-4.21Z" fill="#fff"/>
    </g>
    <g class="label" id="siorapalukLabel">
      <polygon points="474.9 403.08 463.67 418.32 452.44 403.08 463.67 387.85 474.9 403.08" fill="#111112"/>
      <rect x="324.12" y="349.85" width="281.35" height="55" rx="11.01" fill="#111112"/>
      <text transform="translate(377.4 387.85)" font-size="38" fill="#fff" font-family="SourceSansPro-Regular, Source Sans Pro">Sio<tspan x="50.23" y="0" letter-spacing="-0.02em">r</tspan><tspan x="62.51" y="0" letter-spacing="0em">a</tspan><tspan x="81.66" y="0" letter-spacing="-0.01em">p</tspan><tspan x="102.22" y="0">aluk</tspan></text>
      <path class="close" data-name="close" d="M591.46,387.23l-9.87-9.88,9.87-9.88a3,3,0,1,0-4.23-4.24h0l-9.87,9.89-9.87-9.88a3,3,0,0,0-4.23,4.23l9.87,9.88-9.87,9.88a2.89,2.89,0,0,0-.14,4.09l.14.15a3,3,0,0,0,4.21,0l0,0,9.87-9.88,9.87,9.88a3,3,0,0,0,4.26-4.21Z" fill="#fff"/>
    </g>
    <g class="label" id="paamiutLabel">
      <polygon points="672.72 1882.06 657.48 1870.82 672.72 1859.59 687.95 1870.82 672.72 1882.06" fill="#111112"/>
      <rect x="424.99" y="1843.32" width="249" height="55" rx="11.01" fill="#111112"/>
      <text transform="translate(483.22 1882.06)" font-size="38" fill="#fff" font-family="SourceSansPro-Regular, Source Sans Pro"><tspan letter-spacing="-0.04em">P</tspan><tspan x="19.87" y="0">aamiut</tspan></text>
      <path class="close" data-name="close" d="M659,1880.7l-9.87-9.88,9.87-9.88a3,3,0,0,0-4.23-4.24h0l-9.87,9.89-9.87-9.88a3,3,0,1,0-4.23,4.23l9.87,9.88-9.86,9.88a2.89,2.89,0,0,0-.15,4.09l.15.15a3,3,0,0,0,4.2,0l0,0,9.86-9.88,9.87,9.88a3,3,0,0,0,4.26-4.21Z" fill="#fff"/>
    </g>
    <g class="label" id="maniitsoqLabel">
      <polygon points="584.64 1598.93 569.4 1587.7 584.64 1576.47 599.87 1587.7 584.64 1598.93" fill="#111112"/>
      <rect x="315.42" y="1560.2" width="273.49" height="55" rx="11.01" fill="#111112"/>
      <text transform="translate(374 1599.61)" font-size="38" fill="#fff" font-family="SourceSansPro-Regular, Source Sans Pro">Manii<tspan x="86.26" y="0" letter-spacing="-0.01em">t</tspan><tspan x="98.72" y="0" letter-spacing="0em">soq</tspan></text>
      <path class="close" data-name="close" d="M578.73,1597.58l-9.87-9.89,9.87-9.88a3,3,0,0,0-4.23-4.23h0l-9.87,9.88-9.87-9.88a3,3,0,1,0-4.23,4.24l9.87,9.87-9.87,9.89a2.89,2.89,0,0,0-.14,4.09l.14.14a3,3,0,0,0,4.2,0l0,0,9.87-9.87,9.86,9.88a3,3,0,0,0,4.27-4.21Z" fill="#fff"/>
    </g>
    <g class="label" id="nuukLabel">
      <polygon points="618.91 1723.39 603.67 1712.16 618.91 1700.92 634.14 1712.16 618.91 1723.39" fill="#111112"/>
      <rect x="409.6" y="1684.66" width="210.58" height="55" rx="11.01" fill="#111112"/>
      <text transform="translate(472.52 1722.54)" font-size="38" fill="#fff" font-family="SourceSansPro-Regular, Source Sans Pro">Nuuk</text>
      <path class="close" data-name="close" d="M607.22,1722l-9.87-9.89,9.87-9.88A3,3,0,0,0,603,1698h0l-9.87,9.89-9.87-9.88a3,3,0,1,0-4.23,4.24l9.87,9.87L579,1722a2.91,2.91,0,0,0-.15,4.1l.15.14a3,3,0,0,0,4.2,0l0,0,9.86-9.88,9.87,9.88a3,3,0,0,0,4.26-4.2Z" fill="#fff"/>
    </g>
    <g class="label" id="qaqortoqLabel">
      <polygon points="852.01 2056.8 836.78 2045.57 852.01 2034.34 867.25 2045.57 852.01 2056.8" fill="#111112"/>
      <rect x="586.3" y="2018.07" width="266.99" height="55" rx="11.01" fill="#111112"/>
      <text transform="translate(643.16 2056.26)" font-size="38" fill="#fff" font-family="SourceSansPro-Regular, Source Sans Pro">Qaqor<tspan x="99.25" y="0" letter-spacing="-0.01em">t</tspan><tspan x="111.57" y="0">oq</tspan></text>
      <path class="close" data-name="close" d="M839,2055.45l-9.86-9.88,9.86-9.88a3,3,0,0,0-4.23-4.24h0l-9.87,9.89-9.86-9.88a3,3,0,0,0-4.24,4.23l9.88,9.88-9.87,9.88a2.9,2.9,0,0,0-.15,4.09l.15.15a3,3,0,0,0,4.2,0l0,0,9.86-9.88,9.87,9.88a3,3,0,0,0,4.23,0,3,3,0,0,0,0-4.21Z" fill="#fff"/>
    </g>
    <g class="label" id="qeqertarsuaqLabel">
      <polygon points="611.41 1270.11 596.18 1258.88 611.41 1247.65 626.65 1258.88 611.41 1270.11" fill="#111112"/>
      <rect x="308.34" y="1231.38" width="303.35" height="55" rx="11.01" fill="#111112"/>
      <text transform="translate(338.83 1267.6)" font-size="38" fill="#fff" font-family="SourceSansPro-Regular, Source Sans Pro">Qeqer<tspan x="97.2" y="0" letter-spacing="-0.02em">t</tspan><tspan x="109.25" y="0">a</tspan><tspan x="128.4" y="0" letter-spacing="0em">r</tspan><tspan x="141.43" y="0">suaq</tspan></text>
      <path class="close" data-name="close" d="M599.57,1268.76l-9.86-9.89,9.86-9.88a3,3,0,0,0-4.23-4.23h0l-9.87,9.88-9.87-9.88a3,3,0,0,0-4.23,4.24l9.87,9.87-9.86,9.89a2.89,2.89,0,0,0-.15,4.09l.15.14a3,3,0,0,0,4.2,0l0,0,9.86-9.87,9.87,9.88a3,3,0,0,0,4.26-4.21Z" fill="#fff"/>
    </g>
    <g class="label" id="tasiilaqLabel">
      <polygon points="1164.16 1549.78 1152.92 1565.01 1141.69 1549.78 1152.92 1534.54 1164.16 1549.78" fill="#111112"/>
      <rect x="1029.29" y="1494.77" width="247.27" height="55" rx="11.01" fill="#111112"/>
      <text transform="translate(1092.28 1534.54)" font-size="38" fill="#fff" font-family="SourceSansPro-Regular, Source Sans Pro"><tspan letter-spacing="-0.07em">T</tspan><tspan x="17.59" y="0">asiilaq</tspan></text>
      <path class="close" data-name="close" d="M1262.22,1532.16l-9.87-9.89,9.87-9.88a3,3,0,1,0-4.23-4.24h0l-9.87,9.89-9.87-9.88a3,3,0,0,0-4.23,4.24l9.87,9.87-9.87,9.88a2.89,2.89,0,0,0-.14,4.09l.14.15a3,3,0,0,0,4.2,0l0,0,9.87-9.88,9.86,9.88a3,3,0,0,0,4.27-4.21Z" fill="#fff"/>
    </g>
    <g class="label" id="reykjavikLabel">
      <polygon points="1703.36 1568.33 1692.13 1583.56 1680.89 1568.33 1692.13 1553.09 1703.36 1568.33" fill="#111112"/>
      <rect x="1553.16" y="1514.65" width="277.92" height="55" rx="11.01" fill="#111112"/>
      <text transform="translate(1612.1 1552.75)" font-size="38" fill="#fff" font-family="SourceSansPro-Regular, Source Sans Pro"><tspan letter-spacing="-0.01em">R</tspan><tspan x="21.24" y="0" letter-spacing="0em">e</tspan><tspan x="40.28" y="0">y</tspan><tspan x="58.02" y="0" letter-spacing="-0.01em">k</tspan><tspan x="76.45" y="0">javik</tspan></text>
      <path class="close" data-name="close" d="M1818.33,1552l-9.87-9.88,9.87-9.88a3,3,0,0,0-4.23-4.24h0l-9.87,9.89-9.87-9.88a3,3,0,1,0-4.23,4.23l9.87,9.88-9.87,9.88a2.89,2.89,0,0,0-.14,4.09l.14.15a3,3,0,0,0,4.21,0l0,0,9.87-9.88,9.86,9.88a3,3,0,0,0,4.27-4.21Z" fill="#fff"/>
    </g>
    <g class="label" id="copenhagenLabel">
      <polygon points="2274.5 1883.39 2263.27 1898.62 2252.03 1883.39 2263.27 1868.15 2274.5 1883.39" fill="#111112"/>
      <rect x="2088.27" y="1828.75" width="349.99" height="55" rx="11.01" fill="#111112"/>
      <text transform="translate(2162.72 1866.32)" font-size="38" fill="#fff" font-family="SourceSansPro-Regular, Source Sans Pro">Copenha<tspan x="142.84" y="0" letter-spacing="-0.01em">g</tspan><tspan x="161.46" y="0">en</tspan></text>
      <path class="close" data-name="close" d="M2424.36,1866.13l-9.87-9.89,9.87-9.88a3,3,0,0,0-4.23-4.23h0l-9.87,9.88-9.87-9.88a3,3,0,1,0-4.23,4.24l9.87,9.87-9.87,9.89a2.89,2.89,0,0,0-.14,4.09l.14.14a3,3,0,0,0,4.2,0l0,0,9.87-9.87,9.86,9.88a3,3,0,0,0,4.23,0,3,3,0,0,0,0-4.21Z" fill="#fff"/>
    </g>
    <g class="label" id="keflavikLabel">
      <polygon points="1655.73 1661.82 1666.96 1646.58 1678.2 1661.82 1666.96 1677.05 1655.73 1661.82" fill="#111112"/>
      <rect x="1455.74" y="1661.82" width="434.04" height="55" rx="11.01" fill="#111112"/>
      <text transform="translate(1512.99 1700.69)" font-size="38" fill="#fff" font-family="SourceSansPro-Regular, Source Sans Pro"><tspan letter-spacing="-0.01em">R</tspan><tspan x="21.24" y="0" letter-spacing="0em">e</tspan><tspan x="40.28" y="0">y</tspan><tspan x="58.02" y="0" letter-spacing="-0.01em">k</tspan><tspan x="76.45" y="0">javik (</tspan><tspan x="170.01" y="0" letter-spacing="-0.01em">K</tspan><tspan x="191.75" y="0">eflavik)</tspan></text>
      <path class="close" data-name="close" d="M1877.79,1699.2l-9.87-9.89,9.87-9.88a3,3,0,1,0-4.23-4.24h0l-9.87,9.89-9.87-9.88a3,3,0,0,0-4.23,4.24l9.87,9.87-9.86,9.88a2.91,2.91,0,0,0-.15,4.1l.15.14a3,3,0,0,0,4.2,0l0,0,9.86-9.88,9.87,9.88a3,3,0,0,0,4.26-4.21Z" fill="#fff"/>
    </g>
    <g class="label" id="ilulissatLabel">
      <polygon points="737.37 1242.22 726.13 1257.45 714.9 1242.22 726.13 1226.98 737.37 1242.22" fill="#111112"/>
      <rect x="620.84" y="1185.78" width="210.58" height="57" rx="11.01" fill="#111112"/>
      <text transform="translate(660.82 1226.47)" font-size="38" fill="#fff" font-family="SourceSansPro-Regular, Source Sans Pro">Iluliss<tspan x="91.24" y="0" letter-spacing="-0.01em">a</tspan><tspan x="109.86" y="0">t</tspan></text>
      <path class="close" data-name="close" d="M822.34,1224.16l-9.86-9.88,9.86-9.89a3,3,0,0,0-4.23-4.23h0l-9.87,9.88-9.86-9.88a3,3,0,0,0-4.24,4.24l9.88,9.88-9.87,9.88a2.89,2.89,0,0,0-.14,4.09l.14.14a3,3,0,0,0,4.2,0l0,0,9.86-9.87,9.87,9.88a3,3,0,0,0,4.23,0,3,3,0,0,0,0-4.21Z" fill="#fff"/>
    </g>
    <g class="label" id="sisimiutLabel">
      <polygon points="585.75 1472.02 570.51 1460.78 585.75 1449.55 600.98 1460.78 585.75 1472.02" fill="#111112"/>
      <rect x="345.37" y="1433.28" width="244.65" height="55" rx="11.01" fill="#111112"/>
      <text transform="translate(398.03 1472.55)" font-size="38" fill="#fff" font-family="SourceSansPro-Regular, Source Sans Pro">Sisimiut</text>
      <path class="close" data-name="close" d="M575.06,1470.66l-9.87-9.88,9.87-9.88a3,3,0,0,0-4.23-4.24h0l-9.87,9.89-9.87-9.88a3,3,0,0,0-4.23,4.23l9.87,9.88-9.87,9.88a2.89,2.89,0,0,0-.14,4.09l.14.15a3,3,0,0,0,4.2,0l0,0L561,1465l9.86,9.88a3,3,0,0,0,4.27-4.21Z" fill="#fff"/>
    </g>
    <g class="label" id="kulusukLabel">
      <polygon points="1228.67 1594.02 1213.44 1582.78 1228.67 1571.55 1243.91 1582.78 1228.67 1594.02" fill="#111112"/>
      <rect x="1229.04" y="1555.28" width="244.63" height="55" rx="11.01" fill="#111112"/>
      <text transform="translate(1287.41 1594.02)" font-size="38" fill="#fff" font-family="SourceSansPro-Regular, Source Sans Pro" letter-spacing="-0.01em">K<tspan x="21.47" y="0" letter-spacing="0em">ulusuk</tspan></text>
      <path class="close" data-name="close" d="M1458.6,1592.66l-9.86-9.88,9.86-9.88a3,3,0,0,0-4.23-4.24h0l-9.87,9.89-9.86-9.88a3,3,0,1,0-4.24,4.23l9.88,9.88-9.87,9.88a2.9,2.9,0,0,0-.15,4.09l.15.15a3,3,0,0,0,4.2,0l0,0,9.86-9.88,9.87,9.88a3,3,0,0,0,4.26-4.21Z" fill="#fff"/>
    </g>
  </g>
</svg>
