<svg id="Layer_1" data-name="Layer 1" xmlns="http://www.w3.org/2000/svg" viewBox="0 0 3300 2200">
  <g id="routes">
    <path class="route" id="copenhagen-narsarsuaq" d="M923.2,2014.67s491.22-272.8,1330.5-97.87" fill="none" stroke="#bc252b" stroke-miterlimit="10" stroke-width="4"/>
    <path class="route" id="copenhagen-kangerlussuaq" d="M722.17,1465.49s866.28-197.16,1536,451.31" fill="none" stroke="#bc252b" stroke-miterlimit="10" stroke-width="4"/>
    <path class="route" id="aasiaat-ilulissat" d="M715,1275.27s-42,4.39-57,35" fill="none" stroke="#bc252b" stroke-miterlimit="10" stroke-width="4"/>
    <path class="route" id="ilulissat-kangerlussuaq" d="M726.13,1288s33.24,140.27-4,177.54" fill="none" stroke="#bc252b" stroke-miterlimit="10" stroke-width="4"/>
    <path class="route" id="aasiaat-kangerlussuaq" d="M657.91,1327.41s35.08,93.19,56.36,128.74" fill="none" stroke="#bc252b" stroke-miterlimit="10" stroke-width="4"/>
    <path class="route" id="sisimiut-kangerlussuaq" d="M622.26,1461s62.17-2.07,81.2,8" fill="none" stroke="#bc252b" stroke-miterlimit="10" stroke-width="4"/>
    <path class="route" id="maniitsoq-kangerlussuaq" d="M714.27,1478.76S645.93,1503.58,615,1581" fill="none" stroke="#bc252b" stroke-miterlimit="10" stroke-width="4"/>
    <path class="route" id="nuuk-kangerlussuaq" d="M714.27,1478.76S678,1583.28,653.21,1703.09" fill="none" stroke="#bc252b" stroke-miterlimit="10" stroke-width="4"/>
    <path class="route" id="narsarsuaq-kangerlussuaq" d="M714.27,1478.76s104,192.49,193.66,520.63" fill="none" stroke="#bc252b" stroke-miterlimit="10" stroke-width="4"/>
    <path class="route" id="nuuk-kulusuk" d="M663.16,1714s237.61-183.3,524.37-140" fill="none" stroke="#bc252b" stroke-miterlimit="10" stroke-width="4"/>
    <path class="route" id="kulusuk-tasiilaq" d="M1161,1594.82s5.94,15.19,25.73,4.44" fill="none" stroke="#bc252b" stroke-miterlimit="10" stroke-width="4"/>
    <path class="route" id="nuuk-maniitsoq" d="M615,1594.77s10.43,53.71,40,105.66" fill="none" stroke="#bc252b" stroke-miterlimit="10" stroke-width="4"/>
    <path class="route" id="nuuk-narsarsuaq" d="M653.21,1722.54s55.5,172.58,254.72,276.85" fill="none" stroke="#bc252b" stroke-miterlimit="10" stroke-width="4"/>
    <path class="route" id="narsarsuaq-qaqortoq" d="M894.15,2045.57a19.56,19.56,0,0,0,13.78-19.37" fill="none" stroke="#bc252b" stroke-miterlimit="10" stroke-width="4"/>
    <path class="route" id="keflavik-nuuk" d="M665.58,1712.16s293.46-313.55,990.11-81.43" fill="none" stroke="#bc252b" stroke-miterlimit="10" stroke-width="4"/>
    <path class="route" id="reykjavik-kulusuk" d="M1198.92,1586.52s202.48-91.27,483.32,15.28" fill="none" stroke="#272e64" stroke-miterlimit="10" stroke-width="4"/>
    <path class="route" id="sisimiut-nuuk" d="M607.63,1463.07S544.94,1605.89,642,1712.16" fill="none" stroke="#bc252b" stroke-miterlimit="10" stroke-width="4"/>
    <path class="route" id="ilulissat-qaarsut" d="M686.43,1156.92s8.38,65.91,40.17,107.85" fill="none" stroke="#bc252b" stroke-miterlimit="10" stroke-width="4"/>
    <path class="route" id="ilulissat-qeqertarsuaq" d="M655.14,1260.13s22.25,13.77,62.48,16.4" fill="none" stroke="#bc252b" stroke-miterlimit="10" stroke-width="4"/>
    <path class="route" id="siorapaluk-qaanaaq" d="M471.37,478.46a25.19,25.19,0,0,1-7.57-26.57" fill="none" stroke="#bc252b" stroke-miterlimit="10" stroke-width="4"/>
    <path class="route" id="nuuk-paamiut" d="M653.21,1722.54s-22.21,84.92,49,142.77" fill="none" stroke="#bc252b" stroke-miterlimit="10" stroke-width="4"/>
    <path class="route" id="narsarsuaq-paamiut" d="M702.79,1879S761,1990.82,892.65,2014.67" fill="none" stroke="#bc252b" stroke-miterlimit="10" stroke-width="4"/>
    <path class="route" id="keflavik-nuuk-2" data-name="keflavik-nuuk" d="M737.12,1276.53s461.8-8.2,918.57,354.2" fill="none" stroke="#272e64" stroke-miterlimit="10" stroke-width="4"/>
    <path class="route" id="narsarsuaq-reykjavik" d="M907.93,1999.39s180.67-378.22,774.31-397.59" fill="none" stroke="#272e64" stroke-miterlimit="10" stroke-width="4"/>
    <path class="route" id="nuuk-keflavik" d="M665.58,1712.16S1033.65,1818,1662.15,1624" fill="none" stroke="#272e64" stroke-miterlimit="10" stroke-width="4"/>
    <path class="route" id="ilulissat-qaanaaq" d="M480,475.83s11.31,518.7,246.62,788.94" fill="none" stroke="#bc252b" stroke-miterlimit="10" stroke-width="4"/>
  </g>
  <g id="pins">
    <rect class="pin" id="kulusukPin" x="1176.73" y="1575.72" width="21.6" height="21.6" transform="translate(1469.66 -375.03) rotate(45)" fill="#101011"/>
    <rect class="pin" id="sisimiutPin" x="604.21" y="1449.98" width="21.6" height="21.6" rx="10.8" transform="translate(1213.06 -7.03) rotate(45)" fill="#101011"/>
    <rect class="pin" id="ilulissatPin" x="715.33" y="1265.72" width="21.6" height="21.6" transform="translate(1115.32 -139.57) rotate(45)" fill="#101011"/>
    <rect class="pin" id="keflavikPin" x="1656.16" y="1619.93" width="21.6" height="21.6" transform="translate(1641.34 -701.09) rotate(45)" fill="#101011"/>
    <rect class="pin" id="copenhagenPin" x="2252.47" y="1906.19" width="21.6" height="21.6" transform="translate(2018.41 -1038.9) rotate(45)" fill="#101011"/>
    <rect class="pin" id="reykjavikPin" x="1681.32" y="1590.99" width="21.6" height="21.6" transform="translate(1628.25 -727.36) rotate(45)" fill="#101011"/>
    <rect class="pin" id="nuukPin" x="642.41" y="1701.35" width="21.6" height="21.6" transform="translate(1402 39.59) rotate(45)" fill="#101011"/>
    <rect class="pin" id="maniitsoqPin" x="604.21" y="1576.9" width="21.6" height="21.6" rx="10.8" transform="translate(1302.81 30.14) rotate(45)" fill="#101011"/>
    <rect class="pin" id="paamiutPin" x="691.45" y="1860.02" width="21.6" height="21.6" rx="10.8" transform="translate(1528.56 51.38) rotate(45)" fill="#101011"/>
    <rect class="pin" id="qaanaaqPin" x="466.56" y="458.7" width="26.85" height="26.85" rx="13.42" transform="translate(474.42 -201.12) rotate(45)" fill="#101011"/>
    <rect class="pin" id="kangerlussuaqPin" x="703.47" y="1456.16" width="21.6" height="21.6" transform="translate(1246.5 -75.4) rotate(45)" fill="#101011"/>
    <rect class="pin" id="narsarsuaqPin" x="897.12" y="2003.86" width="21.6" height="21.6" transform="translate(1690.51 -51.92) rotate(45)" fill="#101011"/>
    <rect class="pin" id="aasiaatPin" x="647.11" y="1308.65" width="21.6" height="21.6" rx="10.8" transform="translate(1125.69 -78.75) rotate(45)" fill="#101011"/>
    <rect class="pin" id="qaarsutPin" x="675.63" y="1135.32" width="21.6" height="21.6" rx="10.8" transform="translate(1011.48 -149.69) rotate(45)" fill="#101011"/>
    <g class="pin" id="tasiilaqPin">
      <circle cx="1161.02" cy="1584.63" r="5.94" fill="#101011"/>
      <circle cx="1161.02" cy="1584.63" r="10.19" fill="none" stroke="#101011" stroke-miterlimit="10" stroke-width="2"/>
    </g>
    <g class="pin" id="siorapalukPin">
      <circle cx="463.8" cy="439.14" r="7.44" fill="#101011"/>
      <circle cx="463.8" cy="439.14" r="12.76" fill="none" stroke="#101011" stroke-miterlimit="10" stroke-width="2"/>
    </g>
    <g class="pin" id="qeqertarsuaqPin">
      <circle cx="644.95" cy="1260.13" r="5.94" fill="#101011"/>
      <circle cx="644.95" cy="1260.13" r="10.19" fill="none" stroke="#101011" stroke-miterlimit="10" stroke-width="2"/>
    </g>
    <g class="pin" id="qaqortoqPin">
      <circle cx="883.96" cy="2046.07" r="5.94" fill="#101011"/>
      <circle cx="883.96" cy="2046.07" r="10.19" fill="none" stroke="#101011" stroke-miterlimit="10" stroke-width="2"/>
    </g>
  </g>
  <g id="labels">
    <g class="label" id="qaarsutLabel">
      <polygon points="696.54 1118.3 685.3 1133.53 674.07 1118.3 685.3 1103.06 696.54 1118.3" fill="#111112"/>
      <rect x="580.01" y="1077.97" width="210.58" height="44.07" rx="11.01" fill="#111112"/>
      <text transform="translate(632.25 1108.59)" font-size="32" fill="#fff" font-family="SourceSansPro-Regular, Source Sans Pro">Qaa<tspan x="53.5" y="0" letter-spacing="0em">r</tspan><tspan x="64.48" y="0">sut</tspan></text>
    </g>
    <g class="label" id="aasiaatLabel">
      <polygon points="629.72 1330.69 614.48 1319.45 629.72 1308.22 644.95 1319.45 629.72 1330.69" fill="#111112"/>
      <rect x="423.4" y="1297.42" width="210.58" height="44.07" rx="11.01" fill="#111112"/>
      <text transform="translate(479.98 1330.69)" font-size="32" fill="#fff" font-family="SourceSansPro-Regular, Source Sans Pro"><tspan letter-spacing="0.02em">A</tspan><tspan x="18.14" y="0">asia</tspan><tspan x="71.68" y="0" letter-spacing="-0.01em">a</tspan><tspan x="87.36" y="0">t</tspan></text>
    </g>
    <g class="label" id="narsarsuaqLabel">
      <polygon points="919.58 1969.56 908.34 1984.8 897.11 1969.56 908.34 1954.32 919.58 1969.56" fill="#111112"/>
      <rect x="787.13" y="1925.49" width="249.62" height="44.07" rx="11.01" fill="#111112"/>
      <text transform="translate(831.83 1955.9)" font-size="32" fill="#fff" font-family="SourceSansPro-Regular, Source Sans Pro">Na<tspan x="36.83" y="0" letter-spacing="0em">r</tspan><tspan x="47.81" y="0">sa</tspan><tspan x="77.34" y="0" letter-spacing="0em">r</tspan><tspan x="88.32" y="0">suaq</tspan></text>
    </g>
    <g class="label" id="kangerlussuaqLabel">
      <polygon points="725.5 1432.91 714.27 1448.14 703.03 1432.91 714.27 1417.67 725.5 1432.91" fill="#111112"/>
      <rect x="574.47" y="1388.84" width="286.79" height="44.07" rx="11.01" fill="#111112"/>
      <text transform="translate(615.02 1419.25)" font-size="32" fill="#fff" font-family="SourceSansPro-Regular, Source Sans Pro">Kan<tspan x="52.16" y="0" letter-spacing="-0.01em">g</tspan><tspan x="67.84" y="0">erlussuaq</tspan></text>
    </g>
    <g class="label" id="qaanaaqLabel">
      <polygon points="492.46 504.79 481.23 520.02 469.99 504.79 481.23 489.55 492.46 504.79" fill="#111112"/>
      <rect x="364.92" y="504.79" width="234.86" height="45.27" rx="11.01" fill="#111112"/>
      <text transform="translate(421.65 536.26)" font-size="32" fill="#fff" font-family="SourceSansPro-Regular, Source Sans Pro">Qaanaaq</text>
    </g>
    <g class="label" id="siorapalukLabel">
      <polygon points="474.9 406.32 463.67 421.55 452.44 406.32 463.67 391.08 474.9 406.32" fill="#111112"/>
      <rect x="353.14" y="359.16" width="223.32" height="46.73" rx="11.01" fill="#111112"/>
      <text transform="translate(390.86 391.08)" font-size="32" fill="#fff" font-family="SourceSansPro-Regular, Source Sans Pro">Sio<tspan x="42.3" y="0" letter-spacing="-0.02em">r</tspan><tspan x="52.64" y="0">a</tspan><tspan x="68.77" y="0" letter-spacing="-0.01em">p</tspan><tspan x="86.08" y="0">aluk</tspan></text>
    </g>
    <g class="label" id="paamiutLabel">
      <polygon points="672.72 1882.06 657.48 1870.82 672.72 1859.59 687.95 1870.82 672.72 1882.06" fill="#111112"/>
      <rect x="466.41" y="1848.79" width="210.58" height="44.07" rx="11.01" fill="#111112"/>
      <text transform="translate(515.89 1880.45)" font-size="32" fill="#fff" font-family="SourceSansPro-Regular, Source Sans Pro"><tspan letter-spacing="-0.04em">P</tspan><tspan x="16.74" y="0">aamiut</tspan></text>
    </g>
    <g class="label" id="maniitsoqLabel">
      <polygon points="584.64 1598.93 569.4 1587.7 584.64 1576.47 599.87 1587.7 584.64 1598.93" fill="#111112"/>
      <rect x="378.33" y="1565.66" width="210.58" height="44.07" rx="11.01" fill="#111112"/>
      <text transform="translate(417.8 1597.58)" font-size="32" fill="#fff" font-family="SourceSansPro-Regular, Source Sans Pro">Manii<tspan x="72.64" y="0" letter-spacing="-0.01em">t</tspan><tspan x="83.13" y="0">soq</tspan></text>
    </g>
    <g class="label" id="nuukLabel">
      <polygon points="618.91 1723.39 603.67 1712.16 618.91 1700.92 634.14 1712.16 618.91 1723.39" fill="#111112"/>
      <rect x="412.6" y="1690.12" width="210.58" height="44.07" rx="11.01" fill="#111112"/>
      <text transform="translate(482.21 1722.54)" font-size="32" fill="#fff" font-family="SourceSansPro-Regular, Source Sans Pro">Nuuk</text>
    </g>
    <g class="label" id="qaqortoqLabel">
      <polygon points="854.12 2056.8 838.88 2045.57 854.12 2034.34 869.35 2045.57 854.12 2056.8" fill="#111112"/>
      <rect x="647.8" y="2023.54" width="210.58" height="44.07" rx="11.01" fill="#111112"/>
      <text transform="translate(688.57 2053.88)" font-size="32" fill="#fff" font-family="SourceSansPro-Regular, Source Sans Pro">Qaqor<tspan x="83.58" y="0" letter-spacing="-0.01em">t</tspan><tspan x="93.95" y="0">oq</tspan></text>
    </g>
    <g class="label" id="qeqertarsuaqLabel">
      <polygon points="615 1272.83 599.76 1261.59 615 1250.36 630.23 1261.59 615 1272.83" fill="#111112"/>
      <rect x="341.61" y="1239.56" width="277.66" height="44.07" rx="11.01" fill="#111112"/>
      <text transform="translate(386.47 1270.32)" font-size="32" fill="#fff" font-family="SourceSansPro-Regular, Source Sans Pro">Qeqer<tspan x="81.85" y="0" letter-spacing="-0.02em">t</tspan><tspan x="92" y="0">a</tspan><tspan x="108.13" y="0" letter-spacing="0em">r</tspan><tspan x="119.1" y="0">suaq</tspan></text>
    </g>
    <g class="label" id="tasiilaqLabel">
      <polygon points="1171.86 1554.92 1160.63 1570.16 1149.4 1554.92 1160.63 1539.69 1171.86 1554.92" fill="#111112"/>
      <rect x="1055.34" y="1514.59" width="210.58" height="44.07" rx="11.01" fill="#111112"/>
      <text transform="translate(1109.56 1546.94)" font-size="32" fill="#fff" font-family="SourceSansPro-Regular, Source Sans Pro"><tspan letter-spacing="-0.07em">T</tspan><tspan x="14.82" y="0">asiilaq</tspan></text>
    </g>
    <g class="label" id="reykjavikLabel">
      <polygon points="1703.36 1568.33 1692.13 1583.56 1680.89 1568.33 1692.13 1553.09 1703.36 1568.33" fill="#111112"/>
      <rect x="1586.83" y="1527.99" width="210.58" height="44.07" rx="11.01" fill="#111112"/>
      <text transform="translate(1628.59 1558.91)" font-size="32" fill="#fff" font-family="SourceSansPro-Regular, Source Sans Pro"><tspan letter-spacing="-0.01em">R</tspan><tspan x="17.89" y="0" letter-spacing="0em">e</tspan><tspan x="33.92" y="0">y</tspan><tspan x="48.86" y="0" letter-spacing="-0.01em">k</tspan><tspan x="64.38" y="0">javik</tspan></text>
    </g>
    <g class="label" id="copenhagenLabel">
      <polygon points="2274.5 1883.39 2263.27 1898.62 2252.03 1883.39 2263.27 1868.15 2274.5 1883.39" fill="#111112"/>
      <rect x="2138.63" y="1843.05" width="249.27" height="44.07" rx="11.01" fill="#111112"/>
      <text transform="translate(2178.6 1875.16)" font-size="32" fill="#fff" font-family="SourceSansPro-Regular, Source Sans Pro">Copenha<tspan x="120.29" y="0" letter-spacing="-0.01em">g</tspan><tspan x="135.97" y="0">en</tspan></text>
    </g>
    <g class="label" id="keflavikLabel">
      <polygon points="1655.73 1661.82 1666.96 1646.58 1678.2 1661.82 1666.96 1677.05 1655.73 1661.82" fill="#111112"/>
      <rect x="1494.71" y="1660.02" width="356.1" height="44.07" rx="11.01" fill="#111112"/>
      <text transform="translate(1543.1 1691.74)" font-size="32" fill="#fff" font-family="SourceSansPro-Regular, Source Sans Pro"><tspan letter-spacing="-0.01em">R</tspan><tspan x="17.89" y="0" letter-spacing="0em">e</tspan><tspan x="33.92" y="0">y</tspan><tspan x="48.86" y="0" letter-spacing="-0.01em">k</tspan><tspan x="64.38" y="0">javik (</tspan><tspan x="143.17" y="0" letter-spacing="-0.01em">K</tspan><tspan x="161.47" y="0">eflavik)</tspan></text>
    </g>
    <g class="label" id="ilulissatLabel">
      <polygon points="737.37 1243.64 726.13 1258.88 714.9 1243.64 726.13 1228.41 737.37 1243.64" fill="#111112"/>
      <rect x="620.84" y="1203.31" width="210.58" height="44.07" rx="11.01" fill="#111112"/>
      <text transform="translate(674.94 1234.61)" font-size="32" fill="#fff" font-family="SourceSansPro-Regular, Source Sans Pro">Iluliss<tspan x="76.83" y="0" letter-spacing="-0.01em">a</tspan><tspan x="92.51" y="0">t</tspan></text>
    </g>
    <g class="label" id="sisimiutLabel">
      <polygon points="585.75 1472.02 570.51 1460.78 585.75 1449.55 600.98 1460.78 585.75 1472.02" fill="#111112"/>
      <rect x="379.43" y="1438.75" width="210.58" height="44.07" rx="11.01" fill="#111112"/>
      <text transform="translate(431.37 1468.98)" font-size="32" fill="#fff" font-family="SourceSansPro-Regular, Source Sans Pro">Sisimiut</text>
    </g>
    <g class="label" id="kulusukLabel">
      <polygon points="1225.57 1596.59 1210.34 1585.36 1225.57 1574.12 1240.81 1585.36 1225.57 1596.59" fill="#111112"/>
      <rect x="1221.94" y="1563.32" width="210.58" height="44.07" rx="11.01" fill="#111112"/>
      <text transform="translate(1273.37 1596.59)" font-size="32" fill="#fff" font-family="SourceSansPro-Regular, Source Sans Pro"><tspan letter-spacing="-0.01em">K</tspan><tspan x="18.08" y="0">ulusuk</tspan></text>
    </g>
  </g>
</svg>
